<svg width="372" height="219" viewBox="0 0 372 219" fill="none" xmlns="http://www.w3.org/2000/svg">
<g filter="url(#filter0_d_3465_1671)">
<rect x="77" y="59" width="217.097" height="64.92" rx="16" fill="white"/>
</g>
<path d="M230.72 90.627V79.8238H232.515V88.9498H237.649V90.627H230.72ZM241.755 90.8541C241.213 90.8541 240.703 90.7589 240.224 90.5684C239.751 90.3731 239.338 90.0997 238.987 89.7481C238.635 89.3965 238.357 88.9595 238.152 88.4371C237.951 87.9097 237.851 87.3287 237.851 86.6939C237.851 86.064 237.956 85.4879 238.166 84.9654C238.376 84.438 238.659 84.001 239.016 83.6544C239.372 83.3077 239.785 83.0391 240.254 82.8487C240.727 82.6534 241.228 82.5557 241.755 82.5557C242.956 82.5557 243.906 82.9854 244.604 83.8448C245.302 84.7042 245.571 85.8052 245.41 87.148H239.58C239.648 87.8658 239.88 88.4102 240.276 88.7813C240.671 89.1524 241.164 89.338 241.755 89.338C242.204 89.338 242.59 89.2379 242.912 89.0377C243.235 88.8326 243.452 88.5469 243.564 88.1807H245.381C245.205 89.0157 244.79 89.67 244.135 90.1436C243.486 90.6172 242.693 90.8541 241.755 90.8541ZM239.638 85.8736H243.601C243.572 85.3023 243.386 84.8604 243.044 84.5479C242.707 84.2305 242.273 84.0718 241.74 84.0718C241.228 84.0718 240.781 84.2256 240.4 84.5333C240.024 84.836 239.77 85.2828 239.638 85.8736ZM248.212 90.627L245.121 82.7828H246.982L249.186 88.6202L251.376 82.7828H253.237L250.146 90.627H248.212ZM256.808 90.8541C256.266 90.8541 255.756 90.7589 255.277 90.5684C254.803 90.3731 254.391 90.0997 254.039 89.7481C253.688 89.3965 253.409 88.9595 253.204 88.4371C253.004 87.9097 252.904 87.3287 252.904 86.6939C252.904 86.064 253.009 85.4879 253.219 84.9654C253.429 84.438 253.712 84.001 254.069 83.6544C254.425 83.3077 254.838 83.0391 255.306 82.8487C255.78 82.6534 256.281 82.5557 256.808 82.5557C258.009 82.5557 258.959 82.9854 259.657 83.8448C260.355 84.7042 260.624 85.8052 260.463 87.148H254.633C254.701 87.8658 254.933 88.4102 255.328 88.7813C255.724 89.1524 256.217 89.338 256.808 89.338C257.257 89.338 257.643 89.2379 257.965 89.0377C258.287 88.8326 258.505 88.5469 258.617 88.1807H260.433C260.258 89.0157 259.843 89.67 259.188 90.1436C258.539 90.6172 257.745 90.8541 256.808 90.8541ZM254.691 85.8736H258.654C258.624 85.3023 258.439 84.8604 258.097 84.5479C257.76 84.2305 257.325 84.0718 256.793 84.0718C256.281 84.0718 255.834 84.2256 255.453 84.5333C255.077 84.836 254.823 85.2828 254.691 85.8736ZM261.463 90.627V79.4503H263.25V90.627H261.463ZM267.844 90.627V89.1988L271.726 85.0899C271.892 84.9092 272.029 84.753 272.136 84.6212C272.248 84.4844 272.361 84.3257 272.473 84.1451C272.59 83.9595 272.678 83.7691 272.737 83.5738C272.795 83.3736 272.824 83.1685 272.824 82.9586C272.824 82.4654 272.673 82.0626 272.37 81.7501C272.073 81.4376 271.689 81.2813 271.22 81.2813C270.674 81.2813 270.229 81.4766 269.887 81.8672C269.551 82.2579 269.389 82.773 269.404 83.4127H267.602C267.568 82.7047 267.702 82.0601 268.005 81.4791C268.308 80.898 268.745 80.4415 269.316 80.1094C269.892 79.7725 270.547 79.6041 271.279 79.6041C272.256 79.6041 273.069 79.8995 273.718 80.4903C274.372 81.0762 274.699 81.8795 274.699 82.9C274.699 83.2711 274.658 83.6129 274.575 83.9254C274.497 84.2379 274.372 84.5308 274.201 84.8043C274.031 85.0728 273.882 85.2852 273.755 85.4415C273.633 85.5928 273.457 85.7906 273.227 86.0347L270.407 89.023H274.773V90.627H267.844ZM234.156 105.854C233.589 105.854 233.067 105.781 232.588 105.634C232.115 105.488 231.695 105.268 231.328 104.975C230.962 104.682 230.669 104.301 230.449 103.833C230.235 103.359 230.115 102.817 230.091 102.207H231.922C231.951 102.827 232.166 103.325 232.566 103.701C232.967 104.077 233.487 104.265 234.126 104.265C234.619 104.265 235.037 104.14 235.379 103.891C235.72 103.642 235.891 103.271 235.891 102.778C235.891 102.045 235.442 101.54 234.544 101.262L232.698 100.69C231.14 100.222 230.362 99.2769 230.362 97.856C230.362 97.4507 230.425 97.0723 230.552 96.7208C230.679 96.3692 230.855 96.0665 231.079 95.8126C231.304 95.5538 231.565 95.334 231.863 95.1534C232.161 94.9678 232.483 94.8311 232.83 94.7432C233.177 94.6505 233.533 94.6041 233.899 94.6041C234.954 94.6041 235.833 94.8946 236.536 95.4756C237.239 96.0567 237.62 96.8599 237.678 97.8853H235.847C235.799 97.358 235.596 96.9454 235.24 96.6475C234.888 96.3448 234.451 96.1934 233.928 96.1934C233.484 96.1934 233.098 96.3277 232.771 96.5963C232.444 96.8599 232.281 97.2042 232.281 97.629C232.281 97.9708 232.383 98.254 232.588 98.4786C232.793 98.6983 233.115 98.8765 233.555 99.0132L235.32 99.5552C236.97 100.073 237.796 101.128 237.796 102.719C237.796 103.227 237.683 103.689 237.459 104.104C237.239 104.514 236.951 104.843 236.594 105.092C236.238 105.341 235.85 105.529 235.43 105.656C235.01 105.788 234.585 105.854 234.156 105.854ZM242.18 105.854C241.638 105.854 241.128 105.759 240.649 105.568C240.176 105.373 239.763 105.1 239.411 104.748C239.06 104.397 238.781 103.96 238.576 103.437C238.376 102.91 238.276 102.329 238.276 101.694C238.276 101.064 238.381 100.488 238.591 99.9654C238.801 99.438 239.084 99.001 239.441 98.6544C239.797 98.3077 240.21 98.0391 240.678 97.8487C241.152 97.6534 241.653 97.5557 242.18 97.5557C243.381 97.5557 244.331 97.9854 245.029 98.8448C245.727 99.7042 245.996 100.805 245.835 102.148H240.005C240.073 102.866 240.305 103.41 240.7 103.781C241.096 104.152 241.589 104.338 242.18 104.338C242.629 104.338 243.015 104.238 243.337 104.038C243.659 103.833 243.877 103.547 243.989 103.181H245.805C245.63 104.016 245.215 104.67 244.56 105.144C243.911 105.617 243.117 105.854 242.18 105.854ZM240.063 100.874H244.026C243.996 100.302 243.811 99.8604 243.469 99.5479C243.132 99.2305 242.698 99.0718 242.165 99.0718C241.653 99.0718 241.206 99.2256 240.825 99.5333C240.449 99.836 240.195 100.283 240.063 100.874ZM246.835 105.627V94.4503H248.622V105.627H246.835ZM249.938 105.627V94.4503H251.725V105.627H249.938ZM256.585 105.854C256.043 105.854 255.533 105.759 255.054 105.568C254.581 105.373 254.168 105.1 253.817 104.748C253.465 104.397 253.187 103.96 252.982 103.437C252.781 102.91 252.681 102.329 252.681 101.694C252.681 101.064 252.786 100.488 252.996 99.9654C253.206 99.438 253.49 99.001 253.846 98.6544C254.202 98.3077 254.615 98.0391 255.084 97.8487C255.557 97.6534 256.058 97.5557 256.585 97.5557C257.786 97.5557 258.736 97.9854 259.434 98.8448C260.133 99.7042 260.401 100.805 260.24 102.148H254.41C254.478 102.866 254.71 103.41 255.106 103.781C255.501 104.152 255.994 104.338 256.585 104.338C257.034 104.338 257.42 104.238 257.742 104.038C258.065 103.833 258.282 103.547 258.394 103.181H260.211C260.035 104.016 259.62 104.67 258.966 105.144C258.316 105.617 257.523 105.854 256.585 105.854ZM254.469 100.874H258.431C258.402 100.302 258.216 99.8604 257.874 99.5479C257.537 99.2305 257.103 99.0718 256.571 99.0718C256.058 99.0718 255.611 99.2256 255.23 99.5333C254.854 99.836 254.6 100.283 254.469 100.874ZM261.211 105.627V97.7828H262.925V99.1744C263.091 98.7349 263.367 98.3809 263.753 98.1124C264.143 97.8438 264.578 97.7095 265.056 97.7095C265.335 97.7095 265.623 97.7437 265.921 97.8121V99.5845C265.589 99.5308 265.315 99.504 265.1 99.504C264.47 99.504 263.96 99.7139 263.57 100.134C263.179 100.549 262.984 101.179 262.984 102.023V105.627H261.211Z" fill="#19191C"/>
<path d="M162.085 91.1407H159.554C157.917 91.1407 157.023 92.3598 157.023 94.4845V102.078H152.135V91.1407H150.091C148.454 91.1407 147.56 92.3598 147.56 94.4845V102.078H142.66V87.0538H147.56V89.3411C148.373 87.5414 149.441 87.0538 151.066 87.0538H157.023V89.3411C157.835 87.5414 158.904 87.0538 160.529 87.0538H162.166L162.085 91.1407ZM141.523 95.7036H131.398C131.642 97.422 132.699 98.316 134.417 98.316C135.717 98.316 136.623 97.7471 136.948 96.8531L141.267 98.0722C140.211 100.685 137.598 102.229 134.417 102.229C129.111 102.229 126.661 98.0722 126.661 94.4729C126.661 90.9665 128.786 86.7984 134.092 86.7984C139.723 86.7984 141.604 91.0362 141.604 94.2291C141.604 94.9722 141.604 95.3785 141.523 95.7036ZM136.878 92.8474C136.797 91.5471 135.822 90.3976 134.185 90.3976C132.641 90.3976 131.735 91.0478 131.41 92.8474H136.878ZM118.185 102.066H122.423L127.811 87.1351H122.911L120.298 95.8662L117.686 87.0538H112.786L118.185 102.066ZM98.2849 102.066H103.103V91.1407H107.759V102.078H112.577V87.0538H103.115V86.1598C103.115 85.1845 103.846 84.5227 104.915 84.5227H107.771V80.4474H104.183C100.677 80.4474 98.3081 82.6534 98.3081 85.8347V87.0538H95.5332V91.1291H98.3081V102.066H98.2849Z" fill="#404145"/>
<path d="M165.103 102.473C166.741 102.473 168.122 101.079 168.122 99.4539C168.122 97.8168 166.741 96.4351 165.103 96.4351C163.466 96.4351 162.085 97.8284 162.085 99.4539C162.085 101.091 163.478 102.473 165.103 102.473Z" fill="#1DBF73"/>
<path d="M202.472 71.4852L219.771 81.4726V101.447L202.472 111.435L185.174 101.447V81.4726L202.472 71.4852Z" fill="url(#paint0_linear_3465_1671)"/>
<rect width="5.89306" height="5.89306" transform="matrix(0.707107 0.707107 0.707107 -0.707107 192.138 91.46)" fill="#DBE500"/>
<rect width="5.89306" height="5.89306" transform="matrix(0.707107 0.707107 0.707107 -0.707107 204.472 91.46)" fill="#DBE500"/>
<defs>
<filter id="filter0_d_3465_1671" x="0" y="0" width="371.097" height="218.92" filterUnits="userSpaceOnUse" color-interpolation-filters="sRGB">
<feFlood flood-opacity="0" result="BackgroundImageFix"/>
<feColorMatrix in="SourceAlpha" type="matrix" values="0 0 0 0 0 0 0 0 0 0 0 0 0 0 0 0 0 0 127 0" result="hardAlpha"/>
<feOffset dy="18"/>
<feGaussianBlur stdDeviation="38.5"/>
<feComposite in2="hardAlpha" operator="out"/>
<feColorMatrix type="matrix" values="0 0 0 0 0 0 0 0 0 0 0 0 0 0 0 0 0 0 0.14 0"/>
<feBlend mode="normal" in2="BackgroundImageFix" result="effect1_dropShadow_3465_1671"/>
<feBlend mode="normal" in="SourceGraphic" in2="effect1_dropShadow_3465_1671" result="shape"/>
</filter>
<linearGradient id="paint0_linear_3465_1671" x1="202.472" y1="77.5121" x2="212.649" y2="102.75" gradientUnits="userSpaceOnUse">
<stop stop-color="#BBCF00"/>
<stop offset="1" stop-color="#9CB100"/>
</linearGradient>
</defs>
</svg>
