<svg width="120" height="42" viewBox="0 0 120 42" fill="none" xmlns="http://www.w3.org/2000/svg">
<path d="M68.4568 12.294C67.3631 12.984 66.1677 13.2509 64.8873 13.0226C63.752 12.8195 62.8733 12.2369 62.4816 11.1087C62.0781 9.94695 62.1798 8.80701 63.0484 7.88699C63.5469 7.35815 64.1904 6.96698 64.8156 6.47843C64.7239 6.10237 64.5772 5.63733 64.5005 5.16053C64.1488 2.95955 66.0877 1.2488 68.2217 1.87166C69.0003 2.0983 69.5705 2.56838 69.7205 3.41284C69.8689 4.24724 69.5538 4.92045 68.8736 5.38718C68.4334 5.68937 67.9433 5.91602 67.3614 6.23836C68.2284 7.44713 69.0886 8.64416 69.9656 9.86636C70.6108 9.04708 70.6708 7.56129 70.1006 6.83939C69.9306 6.62449 69.6105 6.52712 69.3571 6.37938L69.3387 6.36931C69.1737 6.27361 69.2387 6.0201 69.4288 6.01675C69.8822 6.01171 70.3374 6.07383 70.7875 6.05033C71.2693 6.02514 71.7512 5.94624 72.228 5.86397C72.8148 5.76324 73.3433 6.01339 73.5451 6.54055C73.7034 6.95355 73.6734 7.34976 73.3083 7.64356C72.9582 7.92561 72.5547 7.94072 72.178 7.71239C71.7928 7.48071 71.8278 7.09457 71.9045 6.71515C71.9262 6.60603 71.9662 6.49858 72.0162 6.32398C71.5578 6.40624 71.3694 6.68661 71.286 7.03749C71.1926 7.43874 71.1243 7.84502 71.0459 8.24962C71.0026 8.47459 70.9476 8.69788 70.8825 8.91949C70.7692 9.30395 70.6225 9.67833 70.4457 10.0376L70.2774 10.3784C71.116 11.3236 71.6878 11.4579 72.0296 11.6661C72.7015 12.0757 73.3883 12.1227 74.0602 11.6376C74.1186 11.5956 74.1886 11.5687 74.2553 11.5402C74.292 11.5251 74.3336 11.5301 74.3636 11.5553C74.4053 11.5889 74.417 11.6493 74.3887 11.6963C74.3086 11.8306 74.2353 11.9716 74.1269 12.0774C72.8848 13.2812 70.6942 13.4054 69.2454 12.3309L68.8336 12.0455L68.4568 12.294ZM68.3551 11.7014C67.2564 10.2189 66.1577 8.73817 65.0624 7.2591C64.1721 8.02634 64.2321 9.87476 65.2241 11.1054C66.0494 12.1295 67.4915 12.388 68.3551 11.7014ZM67.1047 5.75653C67.4365 5.58192 67.7316 5.45601 67.9933 5.28141C68.7752 4.76096 69.0553 3.76205 68.6635 2.96795C68.3834 2.40049 67.7666 2.11173 67.143 2.25947C66.6245 2.38203 66.3528 2.78663 66.3461 3.45146C66.3378 4.27745 66.6779 4.98257 67.1047 5.75653Z" fill="white"/>
<path d="M18.5644 0V5.84409C18.7811 5.59227 18.9328 5.42102 19.0779 5.24474C19.5263 4.70583 20.1132 4.39356 20.7867 4.24918C22.3156 3.92181 23.601 4.94926 23.6343 6.52235C23.6676 8.10887 23.6476 9.69539 23.6526 11.2819C23.6543 11.8846 23.6326 12.5041 24.4529 12.6233C24.4696 12.625 24.4846 12.6367 24.4979 12.6552C24.5863 12.766 24.5363 12.9339 24.4079 12.9927C24.3645 13.0128 24.3212 13.0262 24.2778 13.0279C23.2875 13.0397 22.2955 13.033 21.3052 13.033C21.0868 13.033 20.8668 13.0565 20.6517 13.0279C20.5683 13.0162 20.4766 12.902 20.4383 12.813C20.4233 12.7778 20.5367 12.6334 20.605 12.625C21.3669 12.5192 21.4469 11.9887 21.4386 11.3591C21.4186 9.92203 21.4336 8.48493 21.4203 7.04615C21.4119 6.08585 21.1052 5.59898 20.4633 5.47139C19.7781 5.3354 19.1045 5.74672 18.7944 6.56097C18.6594 6.9152 18.5827 7.31477 18.5777 7.69419C18.5577 9.01209 18.5827 10.3317 18.5844 11.6513C18.5844 12.1583 18.7811 12.4873 19.3113 12.583C19.3346 12.5881 19.358 12.5964 19.3796 12.6116C19.523 12.7022 19.5097 12.9205 19.363 13.0044C19.3229 13.0279 19.2813 13.043 19.2396 13.043C18.0475 13.0548 16.8555 13.0497 15.6635 13.0313C15.6434 13.0313 15.6218 13.0279 15.6018 13.0229C15.3884 12.9708 15.3534 12.6602 15.5601 12.5847C15.5701 12.5813 15.5801 12.578 15.5901 12.5763C16.1653 12.4722 16.2987 12.0844 16.297 11.5774C16.2937 9.12458 16.2937 6.67345 16.2937 4.22064C16.2937 3.47691 16.2953 2.73318 16.2886 1.98776C16.282 1.3263 16.1486 1.17016 15.5251 0.988846C15.5234 0.988846 15.5217 0.988846 15.5217 0.987167C15.295 0.918334 15.2917 0.579205 15.5134 0.503657C15.5284 0.49862 15.5434 0.493583 15.5601 0.491905C16.5471 0.318982 17.5374 0.166207 18.5644 0Z" fill="white"/>
<path d="M52.9069 5.79373C53.5738 5.3035 54.1289 4.71422 54.8092 4.4305C56.5981 3.68341 58.0302 4.66889 58.0869 6.61469C58.1219 7.7966 58.0935 8.98187 58.0969 10.1638C58.0985 10.6708 58.0969 11.1778 58.1135 11.6848C58.1302 12.17 58.2936 12.5377 58.8554 12.5981C58.8871 12.6015 58.9171 12.6149 58.9455 12.6351C59.0788 12.7274 59.0655 12.9322 58.9221 13.0111C58.8788 13.0346 58.8354 13.0514 58.7921 13.0514C57.6 13.0581 56.408 13.0497 55.216 13.0246C55.186 13.0246 55.1543 13.0162 55.1243 13.0061C54.9425 12.9406 54.9292 12.6703 55.1093 12.5998C55.1209 12.5948 55.1326 12.5914 55.1443 12.5897C55.6678 12.4823 55.8695 12.1432 55.8712 11.6445C55.8745 10.0731 55.8762 8.50004 55.8712 6.92863C55.8712 6.74396 55.8362 6.55761 55.7928 6.37797C55.5977 5.54358 54.8208 5.17255 54.0856 5.60234C53.4121 5.99687 52.9719 6.60126 52.9602 7.40879C52.9402 8.81231 52.9669 10.2142 52.9753 11.6177C52.9786 12.1079 53.1436 12.4655 53.6805 12.5729C53.7122 12.5797 53.7422 12.5981 53.7705 12.625C53.9105 12.7543 53.8489 12.9943 53.6638 13.038C53.6455 13.0413 53.6271 13.0447 53.6105 13.0447C52.4351 13.0531 51.2597 13.0514 50.086 13.0346C50.0727 13.0346 50.0577 13.033 50.0443 13.0296C49.8543 12.991 49.7992 12.7308 49.951 12.6116C49.9776 12.5914 50.0043 12.5763 50.0343 12.5696C50.5195 12.4672 50.7212 12.1364 50.7229 11.6966C50.7279 9.80451 50.7112 7.91076 50.6945 6.01869C50.6912 5.59562 50.4811 5.33204 50.056 5.2246C50.0393 5.22124 50.0243 5.21452 50.0093 5.20613C49.8009 5.097 49.8359 4.76795 50.066 4.7159C50.0677 4.7159 50.0677 4.7159 50.0693 4.7159C50.9863 4.52619 51.9066 4.35495 52.9052 4.16188V5.79373H52.9069Z" fill="white"/>
<path d="M27.9373 4.17363V5.93979C28.1473 5.69467 28.264 5.56372 28.3741 5.42941C28.8125 4.89722 29.331 4.48925 30.0063 4.30122C31.6484 3.8429 32.9372 4.73773 32.9972 6.4468C33.0472 7.84864 33.0122 9.25217 33.0172 10.6557C33.0189 11.0099 33.0205 11.3658 33.0389 11.7201C33.0622 12.1633 33.2273 12.4957 33.7074 12.6116C33.7191 12.6149 33.7291 12.6183 33.7391 12.6233C33.9208 12.7106 33.8741 12.996 33.6774 13.038C33.6607 13.0413 33.6424 13.043 33.6257 13.043C32.467 13.0497 31.3083 13.043 30.1513 13.0246C30.1496 13.0246 30.1496 13.0246 30.148 13.0246C29.9412 13.0178 29.8662 12.7257 30.0429 12.6149C30.0663 12.5998 30.0913 12.588 30.1163 12.583C30.6148 12.4655 30.8015 12.1415 30.8015 11.6613C30.7982 10.0379 30.8065 8.4161 30.7865 6.79264C30.7782 6.06906 30.5064 5.67453 29.9979 5.52175C29.4327 5.35219 28.8609 5.51168 28.5141 6.0892C28.2457 6.53746 28.0056 7.07133 27.979 7.58003C27.9089 8.92815 27.9639 10.283 27.9623 11.6361C27.9623 12.1432 28.1557 12.4689 28.6775 12.583C28.6975 12.588 28.7159 12.5964 28.7342 12.6082C28.9226 12.7257 28.8392 13.038 28.6192 13.043C28.6175 13.043 28.6175 13.043 28.6158 13.043C27.4571 13.0481 26.2984 13.0397 25.1414 13.0178C25.1047 13.0178 25.0664 13.0044 25.0297 12.9843C24.8863 12.907 24.8646 12.6972 24.998 12.6015C25.0163 12.5881 25.0347 12.578 25.0547 12.5729C25.5782 12.437 25.7316 12.0542 25.7332 11.5791C25.7366 9.80451 25.7316 8.02996 25.7232 6.25373C25.7199 5.74 25.5649 5.32532 24.988 5.19437C24.9697 5.18934 24.9513 5.18094 24.933 5.16751C24.7846 5.05503 24.8163 4.80992 24.9863 4.73437C24.9997 4.72933 25.0113 4.72429 25.0264 4.72094C25.96 4.53626 26.8986 4.3667 27.9373 4.17363Z" fill="white"/>
<path d="M1.66575 15.4488C1.95251 15.8383 2.92615 15.6872 3.23291 15.0963C3.43464 14.7068 3.56802 14.2333 3.57135 13.7968C3.60136 10.0261 3.5997 6.25709 3.59636 2.48638C3.59636 1.73593 3.43798 1.58652 2.68107 1.39345C2.6644 1.38841 2.64773 1.38337 2.63272 1.37498C2.456 1.28264 2.461 1.01067 2.64606 0.936799C2.6644 0.930084 2.68274 0.925047 2.69941 0.925047C4.10986 0.90658 5.51864 0.903222 6.92908 0.913295C6.95076 0.913295 6.97243 0.923369 6.99243 0.938478C7.12581 1.03417 7.12414 1.24403 6.99077 1.33972C6.96909 1.35483 6.94575 1.36659 6.92241 1.3733C6.05047 1.57644 5.91709 1.72082 5.91376 2.64084C5.90376 5.46467 5.92376 8.28851 5.88375 11.1107C5.87041 11.982 5.80373 12.8785 5.58032 13.7146C5.07183 15.6134 3.25125 16.5854 1.36732 16.07C0.408686 15.8081 -0.149824 14.9838 0.035235 14.1057C0.165276 13.4896 0.607082 13.0632 1.1906 12.991C1.63407 12.9356 2.07755 13.2126 2.26927 13.6608C2.50935 14.2249 2.37764 14.8159 1.9225 15.2289C1.84914 15.2944 1.77245 15.3565 1.66575 15.4488Z" fill="white"/>
<path d="M84.8886 5.29651C84.8869 5.31834 84.8836 5.33848 84.8753 5.36031C84.7952 5.58192 84.4885 5.62389 84.3434 5.43753C84.3334 5.4241 84.3234 5.41067 84.3168 5.39556C84.055 4.84826 83.8633 4.26569 83.5749 3.7335C83.0514 2.76312 82.2228 2.24939 81.1091 2.26953C79.9937 2.28968 79.1518 2.84202 78.6883 3.8208C77.698 5.90593 77.6446 8.06662 78.6883 10.1299C79.882 12.4887 83.0297 12.7003 84.6619 10.6185C84.6635 10.6168 84.6635 10.6151 84.6652 10.6151C84.8186 10.4237 85.132 10.5379 85.142 10.783C85.1453 10.8485 85.1387 10.9089 85.1137 10.9593C84.7319 11.7517 84.0633 12.2638 83.2998 12.6499C81.0457 13.7915 78.1598 13.2409 76.6993 11.3589C75.564 9.89489 75.3072 8.18414 75.5807 6.40455C76.1008 3.01663 79.0651 1.04901 82.3911 1.83135C82.7179 1.90858 83.0464 1.99084 83.3565 2.11676C83.7616 2.28297 84.0883 2.33165 84.3068 1.83807C84.3468 1.74741 84.5568 1.68361 84.6785 1.69704C84.7486 1.70544 84.8469 1.89011 84.8519 1.99924C84.8669 2.55662 84.9136 4.75592 84.8886 5.29651Z" fill="white"/>
<path d="M85.4554 8.62232C85.502 5.37038 88.1812 3.43466 91.2705 4.42015C92.8527 4.92548 93.8763 6.3609 93.933 8.26808C93.9514 8.90101 93.878 9.55912 93.713 10.1685C93.1478 12.2738 91.2355 13.4373 89.0048 13.0931C86.7074 12.7372 85.4187 11.1154 85.4554 8.62232ZM91.4022 10.8888C91.689 9.40131 91.6673 7.86683 91.3472 6.38608C91.3155 6.23667 91.2789 6.08725 91.2405 5.93951C91.0271 5.14037 90.4636 4.78614 89.7217 4.77438C88.9915 4.76263 88.4663 5.12191 88.1845 5.91936C88.0278 6.35922 87.9295 6.83098 87.8795 7.29602C87.7327 8.62736 87.6994 9.96372 88.1345 11.2548C88.4413 12.163 89.0632 12.618 89.8284 12.576C90.6003 12.5341 91.1422 12.0791 91.3539 11.1372C91.3689 11.055 91.3872 10.9727 91.4022 10.8888Z" fill="white"/>
<path d="M34.4628 10.3972C34.4628 10.3955 34.4628 10.3938 34.4628 10.3921C34.4894 10.1117 34.8695 10.0278 35.0146 10.2679C35.0163 10.2712 35.0179 10.2729 35.0196 10.2763C35.343 10.8236 35.5864 11.4313 35.9782 11.9199C36.4701 12.5343 37.1836 12.7593 37.9722 12.6351C38.494 12.5528 38.8791 12.2775 39.0192 11.7402C39.1526 11.2282 38.9858 10.7799 38.5807 10.4794C38.2206 10.2125 37.8005 10.0244 37.3987 9.81963C36.8618 9.54597 36.2883 9.33108 35.7782 9.01378C34.6812 8.33216 34.241 7.25769 34.5278 6.12111C34.7879 5.08861 35.7365 4.30627 36.9602 4.25758C37.6171 4.23072 38.2873 4.37174 38.9425 4.4859C39.2693 4.54299 39.5527 4.65547 39.7794 4.29451C39.8361 4.20554 40.0579 4.11152 40.1079 4.15013C40.2029 4.22232 40.2746 4.38517 40.2796 4.51444C40.3063 5.22292 40.3229 5.93308 40.3096 6.64323C40.3096 6.66674 40.3046 6.68856 40.2963 6.71207C40.2162 6.94375 39.9111 6.98572 39.7444 6.80776C39.7244 6.78594 39.7061 6.76411 39.6927 6.73893C39.4643 6.34943 39.3176 5.90454 39.0575 5.54023C38.5574 4.83846 37.8305 4.62189 37.0069 4.78474C36.1399 4.95598 35.7648 5.94147 36.3333 6.62644C36.5901 6.93703 36.9719 7.16704 37.337 7.35507C37.9472 7.67069 38.6057 7.89062 39.2126 8.21464C39.9995 8.63603 40.5847 9.24714 40.6764 10.2024C40.8364 11.8628 39.7861 13.0867 38.0255 13.1354C37.312 13.1555 36.5801 12.9289 35.8765 12.7425C35.5181 12.6468 35.2497 12.5612 35.0113 12.9339C34.9979 12.954 34.9812 12.9708 34.9612 12.9876C34.8012 13.1068 34.5711 13.0044 34.5261 12.8097C34.5194 12.7828 34.5161 12.7559 34.5144 12.7291C34.4944 12.3228 34.4327 10.7648 34.4628 10.3972Z" fill="white"/>
<path d="M96.7841 11.8071C96.7757 12.5055 96.2222 13.0747 95.547 13.0797C94.8185 13.0847 94.1999 12.4585 94.2066 11.7248C94.2133 11.0617 94.8085 10.4859 95.4803 10.4909C96.2156 10.4959 96.7924 11.0785 96.7841 11.8071Z" fill="white"/>
<path d="M6.87741 8.71158C6.92409 5.45964 9.60327 3.52392 12.6926 4.50941C14.2747 5.01474 15.2984 6.45017 15.3551 8.35735C15.3734 8.99027 15.3001 9.64838 15.135 10.2578C14.5698 12.3631 12.6576 13.5265 10.4269 13.1824C8.12947 12.8265 6.84239 11.2047 6.87741 8.71158ZM12.8243 10.978C13.111 9.49057 13.0894 7.9561 12.7693 6.47535C12.7376 6.32593 12.7009 6.17651 12.6626 6.02877C12.4492 5.22964 11.8857 4.8754 11.1438 4.86365C10.4135 4.8519 9.88836 5.21117 9.6066 6.00863C9.44989 6.44849 9.35152 6.92025 9.30151 7.38529C9.15479 8.71662 9.12145 10.053 9.55659 11.344C9.86335 12.2523 10.4852 12.7073 11.2505 12.6653C12.0224 12.6233 12.5642 12.1683 12.7759 11.2265C12.7926 11.1442 12.8093 11.062 12.8243 10.978Z" fill="white"/>
<path d="M41.2183 8.71158C41.265 5.45964 43.9442 3.52392 47.0335 4.50941C48.6156 5.01474 49.6393 6.45017 49.696 8.35735C49.7143 8.99027 49.641 9.64838 49.4759 10.2578C48.9107 12.3631 46.9985 13.5265 44.7677 13.1824C42.4704 12.8265 41.1816 11.2047 41.2183 8.71158ZM47.1652 10.978C47.4519 9.49057 47.4303 7.9561 47.1102 6.47535C47.0785 6.32593 47.0418 6.17651 47.0035 6.02877C46.7901 5.22964 46.2265 4.8754 45.4846 4.86365C44.7544 4.8519 44.2292 5.21117 43.9475 6.00863C43.7908 6.44849 43.6924 6.92025 43.6424 7.38529C43.4957 8.71662 43.4623 10.053 43.8975 11.344C44.2042 12.2523 44.8261 12.7073 45.5913 12.6653C46.3633 12.6233 46.9051 12.1683 47.1168 11.2265C47.1335 11.1442 47.1502 11.062 47.1652 10.978Z" fill="white"/>
<path d="M20.6728 34.9803C20.7855 35.0112 20.8606 35.1109 20.8606 35.2278C20.8571 35.5062 20.8708 35.788 20.7991 36.0492C20.3691 37.6097 19.2905 38.6752 17.9866 39.5001C15.3073 41.1911 12.1774 41.7273 9.08502 41.0502C7.45351 40.6927 5.89027 39.9606 4.63762 38.8504C3.17336 37.5478 2.18353 35.7605 1.59305 33.8839C0.0502829 28.9757 1.06059 22.9952 5.1496 19.6269C8.38531 16.9632 12.8327 16.5335 16.6862 17.9943C16.9763 18.1043 17.2699 18.204 17.5429 18.3517C18.1505 18.6817 18.5703 18.5923 18.8161 17.8946C18.8946 17.6712 19.0208 17.4203 19.2017 17.2931C19.4031 17.1522 19.7103 17.056 19.939 17.1041C20.0789 17.1316 20.2462 17.465 20.2496 17.6643C20.3008 20.0875 20.3349 22.5072 20.3281 24.9303C20.3281 25.1434 19.9765 25.549 19.84 25.5284C19.5704 25.4837 19.2325 25.2603 19.1062 25.0162C18.4065 23.638 17.8535 22.1738 17.0685 20.8471C16.2835 19.5135 15.0206 18.723 13.4573 18.5236C11.0101 18.2108 9.027 19.1217 7.91429 21.2767C5.54895 25.8583 5.37146 30.6324 7.80848 35.2037C10.2523 39.7888 16.9388 39.9778 19.9219 35.7227C20.0789 35.4993 20.2428 35.2862 20.4066 35.0697C20.4646 34.9906 20.5704 34.9528 20.6728 34.9803Z" fill="white"/>
<path d="M60.72 39.2285C59.7336 40.1256 58.5151 41.0467 56.904 41.2495C54.3032 41.5726 52.4976 40.6927 51.832 38.737C51.0709 36.5064 51.9105 34.2276 54.1701 33.0315C55.7094 32.2135 57.3955 31.6807 59.0236 31.038C61.2081 30.1753 61.2183 30.1821 61.1466 27.8071C61.133 27.3603 61.075 26.9101 61.0169 26.4667C60.8872 25.494 60.423 24.7688 59.4469 24.4869C58.3888 24.1776 57.3751 24.291 56.573 25.1022C55.9859 25.7002 55.6855 26.3911 56.2453 27.2366C56.8904 28.2093 56.5798 29.2369 55.5353 29.8316C54.4534 30.4468 53.2348 30.134 52.6956 29.0995C51.9208 27.6215 52.4293 25.7861 53.9926 24.7584C55.9142 23.4936 58.0713 23.174 60.3172 23.4283C61.0613 23.5142 61.8122 23.6929 62.5119 23.961C64.5462 24.7516 65.4712 26.3498 65.4985 28.4877C65.5326 31.2201 65.5121 33.9561 65.5189 36.6885C65.5189 37.1044 65.5087 37.5203 65.5428 37.9327C65.6282 39.0154 66.0378 39.2491 67.0276 38.8401C67.031 38.8401 67.031 38.8367 67.0344 38.8367C67.4167 38.682 67.816 39.091 67.6522 39.4725C67.642 39.5 67.6249 39.5275 67.6112 39.5516C66.7067 40.9161 63.9284 41.7891 62.5051 41.0192C61.8088 40.6446 61.3378 39.8678 60.72 39.2285ZM61.0033 31.5501C59.4673 31.801 57.9792 32.5572 57.0815 33.4955C56.1702 34.4475 55.7333 35.5577 55.9756 36.8913C56.2112 38.1974 56.9962 38.9192 58.1806 38.9226C59.4332 38.9261 60.9145 37.8812 60.976 36.771C61.075 35.0559 61.0033 33.3339 61.0033 31.5501Z" fill="white"/>
<path d="M50.5008 35.8465C49.8899 38.3658 47.9717 40.3937 45.4732 41.0227C44.5585 41.253 43.5755 41.3286 42.5413 41.2702C38.1348 41.0193 35.3428 38.1012 35.0254 33.5539C34.9469 32.4266 35.0049 31.258 35.1961 30.1444C36.0732 25.0678 40.9678 22.1394 45.8452 23.7205C48.7055 24.645 50.6783 27.6869 50.4531 30.7424C50.3984 31.4951 49.9342 31.4298 49.453 31.4298C46.5654 31.4298 43.6779 31.4229 40.7903 31.4195C40.3807 31.4195 39.879 31.4539 39.4318 31.4539C39.5001 33.8255 40.1861 36.5614 42.0498 37.62C45.2821 39.4588 47.9136 38.4036 50.1015 35.6609C50.1732 35.5715 50.2926 35.5474 50.3916 35.6024L50.395 35.6059C50.4735 35.6505 50.5179 35.7502 50.5008 35.8465ZM39.4387 30.3712C41.3774 30.3712 43.1625 30.3712 44.9476 30.3712C45.1524 30.3712 45.3606 30.3575 45.5653 30.3575C46.108 30.3575 46.4528 30.1169 46.364 29.5429C46.1968 28.4568 46.1388 27.3156 45.7428 26.3155C44.8383 24.0401 42.0327 23.7583 40.5923 25.738C39.623 27.0819 39.4387 28.6458 39.4387 30.3712Z" fill="white"/>
<path d="M23.0792 27.2056C23.0758 26.2123 22.6423 25.5833 21.6354 25.3496C21.4238 25.3015 21.2053 24.9784 21.1405 24.7378C21.1132 24.6382 21.4511 24.3219 21.6559 24.2841C23.5741 23.9301 25.5025 23.6139 27.5778 23.2633V27.1403C27.9976 26.5389 28.3935 25.9202 28.8236 25.3256C29.694 24.1192 30.7998 23.2977 32.3528 23.3286C33.4382 23.3492 34.3086 23.827 34.725 24.8547C35.1551 25.9167 35.2336 27.0407 34.5134 28.0237C33.5236 29.3744 31.4859 29.0135 30.7179 27.4222C30.7077 27.4016 30.6974 27.3809 30.6872 27.3603C29.967 25.9717 28.5949 27.0613 28.2263 28.0512C27.687 29.505 27.7348 31.0792 27.7211 32.6053C27.7041 34.396 27.7382 36.1833 27.7621 37.974C27.7791 39.5069 28.0181 39.7441 29.496 40.2047C29.5711 40.2287 29.6359 40.2803 29.6939 40.349C29.9158 40.6034 29.8475 41.0227 29.5404 41.1567C29.4994 41.1739 29.4619 41.1842 29.4209 41.1842C26.8439 41.198 24.267 41.1877 21.69 41.1498C21.6525 41.1498 21.6149 41.1395 21.5739 41.1189C21.2531 40.9608 21.2224 40.4865 21.5159 40.2837C21.5535 40.2562 21.591 40.239 21.632 40.2322C22.7413 40.05 23.1099 39.3179 23.1099 38.3108L23.0792 27.2056Z" fill="white"/>
<path d="M98.3847 35.3721C99.3233 32.3853 100.289 29.4054 101.184 26.4048C101.457 25.4802 101.03 24.8616 100.023 24.7413C99.7841 24.7138 99.5179 24.6966 99.3268 24.5729C99.1629 24.4663 99.023 24.2257 99.0025 24.0298C98.9923 23.9233 99.2585 23.6895 99.4018 23.6861C101.358 23.6414 103.317 23.6208 105.276 23.6242C105.409 23.6242 105.672 23.8992 105.648 23.9782C105.59 24.1776 105.409 24.4835 105.262 24.4904C103.672 24.5729 103.15 25.7999 102.689 26.9891C100.996 31.368 99.3779 35.7777 97.6816 40.1565C97.5314 40.5449 97.0809 40.9402 96.6815 41.0811C95.8828 41.3698 95.4835 40.899 95.2002 40.129C93.5311 35.6299 91.8177 31.1445 90.1077 26.6592C89.763 25.7552 89.4558 24.8135 88.3192 24.566C88.169 24.535 87.9745 24.1982 87.9983 24.0367C88.0188 23.8923 88.3158 23.6827 88.4933 23.6792C91.0702 23.6448 93.6472 23.6311 96.2242 23.6448C96.3777 23.6448 96.6645 23.9164 96.6542 24.0435C96.6406 24.2154 96.429 24.4491 96.2515 24.5144C94.422 25.1881 94.3742 25.2293 95.0125 27.0785C95.9716 29.8419 96.9716 32.5915 97.9512 35.3446C98.1014 35.355 98.2414 35.3618 98.3847 35.3721Z" fill="white"/>
<path d="M78.9568 38.7301C78.8407 38.5686 78.6155 38.5411 78.4653 38.6683C78.1103 38.9673 77.4072 39.421 76.4413 39.421C75.0043 39.421 74.2295 38.6305 74.2295 35.8602C74.2295 34.3788 74.2295 29.2644 74.2295 24.8203H78.7861V23.7308H74.2295V17.5853H73.2704C73.2704 20.9811 70.5364 23.7308 67.1676 23.7308H67.0686V24.8203H69.8674C69.8674 24.8203 69.8674 31.148 69.8674 34.9803C69.8674 38.8161 70.4306 41.2048 74.465 41.2048C77.7963 41.2048 78.7622 39.6204 78.9977 39.067C79.0421 38.9536 79.025 38.8264 78.9568 38.7301Z" fill="white"/>
<path d="M83.7626 23.7273H80.6975V32.8218L83.5612 41.2323C83.626 41.4248 83.8991 41.4248 83.9639 41.2323L86.8276 32.8218V23.7273H83.7626ZM84.8206 37.125L83.7626 36.4342L82.7045 37.125L81.1583 32.65L81.9092 31.4814L82.7898 32.6706L83.7591 31.3439L84.7285 32.6706L85.6091 31.4814L86.36 32.65L84.8206 37.125Z" fill="#1DBF73"/>
<path d="M83.7627 22.1738C85.3989 22.1738 86.7254 20.8381 86.7254 19.1904C86.7254 17.5427 85.3989 16.207 83.7627 16.207C82.1265 16.207 80.8 17.5427 80.8 19.1904C80.8 20.8381 82.1265 22.1738 83.7627 22.1738Z" fill="#1DBF73"/>
<path d="M119.891 35.8465C119.28 38.3658 117.362 40.3937 114.864 41.0227C113.949 41.253 112.966 41.3286 111.932 41.2702C107.525 41.0193 104.733 38.1012 104.416 33.5539C104.338 32.4266 104.396 31.258 104.587 30.1444C105.464 25.0678 110.358 22.1394 115.236 23.7205C118.096 24.645 120.069 27.6869 119.844 30.7424C119.789 31.4951 119.325 31.4298 118.844 31.4298C115.956 31.4298 113.068 31.4229 110.181 31.4195C109.771 31.4195 109.27 31.4539 108.822 31.4539C108.891 33.8255 109.577 36.5614 111.44 37.62C114.673 39.4588 117.304 38.4036 119.492 35.6609C119.564 35.5715 119.683 35.5474 119.782 35.6024L119.786 35.6059C119.868 35.6505 119.909 35.7502 119.891 35.8465ZM108.829 30.3712C110.768 30.3712 112.553 30.3712 114.338 30.3712C114.543 30.3712 114.751 30.3575 114.956 30.3575C115.499 30.3575 115.843 30.1169 115.755 29.5429C115.587 28.4568 115.529 27.3156 115.133 26.3155C114.229 24.0401 111.423 23.7583 109.983 25.738C109.014 27.0819 108.829 28.6458 108.829 30.3712Z" fill="white"/>
</svg>
